<svg id="Capa_1" data-name="Capa 1" xmlns="http://www.w3.org/2000/svg" viewBox="0 0 128 129"><defs><style>.cls-1{fill:#cdb874;}.cls-2,.cls-3{fill:none;}.cls-3{stroke:#cdb874;stroke-miterlimit:10;stroke-width:2px;}.cls-4{fill:#fff;}</style></defs><title>doc-cuervo</title><circle cx="63.5" cy="64.72" r="61.45"/><path class="cls-1" d="M63.5,119.91A55.2,55.2,0,0,1,34.34,17.85a1.15,1.15,0,1,1,1.21,1.95,52.91,52.91,0,0,0,53.33,91.34,1.15,1.15,0,1,1,1.1,2A55.14,55.14,0,0,1,63.5,119.91Z"/><path class="cls-1" d="M94.65,110A1.15,1.15,0,0,1,94,108c.91-.64,1.81-1.32,2.67-2a1.15,1.15,0,1,1,1.44,1.79c-.9.72-1.83,1.43-2.78,2.1A1.15,1.15,0,0,1,94.65,110Z"/><path class="cls-1" d="M102.66,103.11a1.13,1.13,0,0,1-.79-.31,1.15,1.15,0,0,1,0-1.63A52.89,52.89,0,0,0,63.5,11.83a52.28,52.28,0,0,0-23.77,5.63,1.15,1.15,0,0,1-1-2.06A54.57,54.57,0,0,1,63.5,9.53a55.19,55.19,0,0,1,40,93.23A1.16,1.16,0,0,1,102.66,103.11Z"/><path id="Shape" class="cls-2" d="M84.53,51.58l.23,38.1a2,2,0,0,1-2,2l-38.2.23a2,2,0,0,1-2-2l-.3-50.26a2,2,0,0,1,2-2l24-.14L84.53,51.58Z"/><g id="Group"><path id="Shape-2" data-name="Shape" class="cls-3" d="M84.53,51.58l.23,38.1a2,2,0,0,1-2,2l-38.2.23a2,2,0,0,1-2-2l-.3-50.26a2,2,0,0,1,2-2l24-.14L84.53,51.58Z"/><path id="Shape-3" data-name="Shape" class="cls-3" d="M84.53,52.39l-14.07.08a2,2,0,0,1-2-2l-.07-12"/><path id="Shape-4" data-name="Shape" class="cls-3" d="M49.34,50.69l13.07-.08"/><path id="Shape-5" data-name="Shape" class="cls-3" d="M49.4,59.74l28.14-.17"/><path id="Shape-6" data-name="Shape" class="cls-3" d="M49.44,66.77l28.14-.17"/><path id="Shape-7" data-name="Shape" class="cls-3" d="M49.49,75.82l28.15-.17"/><path id="Shape-8" data-name="Shape" class="cls-3" d="M49.53,81.85l28.14-.17"/></g><circle class="cls-1" cx="84.89" cy="52.71" r="9.45"/><path class="cls-4" d="M79.91,55.39l2.43,2.43a1.52,1.52,0,0,0,2.36-.3l4.73-7.1.67-1a1.51,1.51,0,0,0-.53-2,1.55,1.55,0,0,0-2.06.53L82.78,55l-.67,1,2.35-.31L82,53.27a1.5,1.5,0,1,0-2.12,2.12Z"/></svg>